<?xml version="1.0" standalone="no"?>
<!DOCTYPE svg PUBLIC "-//W3C//DTD SVG 20010904//EN" "http://www.w3.org/TR/2001/REC-SVG-20010904/DTD/svg10.dtd">
<!-- Created using Krita: https://krita.org -->
<svg xmlns="http://www.w3.org/2000/svg" 
    xmlns:xlink="http://www.w3.org/1999/xlink"
    xmlns:krita="http://krita.org/namespaces/svg/krita"
    xmlns:sodipodi="http://sodipodi.sourceforge.net/DTD/sodipodi-0.dtd"
    width="198.48pt"
    height="141.72pt"
    viewBox="0 0 198.48 141.72">
<defs/>
<path id="shape0" transform="translate(99.2737628032356, 53.9024528143452)" fill="#398f13" fill-rule="evenodd" d="M1.81926 20.9956C-0.0881349 13.7619 -1.60696 6.71515 3.2666 1.96268C5.18377 0.401021 5.46126 -1.00223 10.3257 0.963756C16.0218 5.23768 13.7743 8.55192 11.6753 12.134L9.04262 16.9575C6.36148 21.8921 4.77423 26.3035 4.1279 32.7563C4.09238 32.5994 3.32283 28.6792 1.81926 20.9956Z" sodipodi:nodetypes="ccccccc"/><path id="shape1" transform="translate(83.5979442742812, 74.158819642085)" fill="#398f13" fill-rule="evenodd" d="M16.3879 10.2135C14.565 3.58295 12.193 0.744936 7.93202 0.162059C5.19528 -0.212311 4.98989 -0.016371 2.02724 1.5872C-1.19095 4.58013 -0.359358 7.89475 2.98621 9.23232C5.49213 10.2342 7.99611 10.8439 10.4981 11.0615C14.5133 15.4115 14.0872 14.8122 15.6421 21.2772C16.9277 19.5664 17.1763 15.8785 16.3879 10.2135Z" sodipodi:nodetypes="cscsccc"/><path id="shape2" transform="translate(99.2651096533137, 89.5069760804873)" fill="#398f13" fill-rule="evenodd" d="M0.0192871 14.7125C10.6443 11.5919 15.5762 2.56883 31.9183 5.37583C29.6635 1.39711 13.5918 -3.74281 5.92016 4.06976C1.74811 7.97585 -0.218844 11.5234 0.0192871 14.7125Z" sodipodi:nodetypes="cccc"/><path id="shape3" transform="translate(78.4773055325956, 56.049827199769)" fill="#1a5400" fill-rule="evenodd" d="M15.7253 51.851C23.9108 36.3096 24.5093 19.6376 5.39865 5.34093L0 2.74372L2.32639 0L6.09124 1.98454C28.4189 14.4115 28.9768 38.3451 19.1261 54.1818C16.3178 59.4711 10.4542 60.4773 7.01469 57.7025C3.59431 53.0363 9.64919 46.4747 9.24341 49.498C8.47994 55.1863 11.6348 56.6882 15.7253 51.851Z" sodipodi:nodetypes="cccccccsc"/><path id="shape4" transform="translate(110.616026577243, 68.1493564776901)" fill="#1a5400" fill-rule="evenodd" d="M0.00277316 18.7331C-0.124821 10.3222 4.15059 4.19246 12.829 0.344001C13.4706 0.0595022 14.7581 -0.0485299 16.6915 0.0199042L16.6782 4.61053C12.9263 3.33556 9.08454 5.25795 5.1528 10.3777L9.45041 10.058C4.49734 12.8597 1.34813 15.7514 0.00277316 18.7331Z" sodipodi:nodetypes="csccccc"/><path id="shape5" transform="translate(100.137002238617, 91.4382710630928)" fill="#297208" fill-rule="evenodd" d="M0.297176 12.5104C-1.63929 21.1513 6.32031 19.7664 11.6494 17.8291C15.9279 16.2381 17.9893 12.5419 19.7208 8.5324C22.6112 3.07845 25.9553 2.02544 31.0641 3.24919C21.7188 -3.16735 11.4631 -0.0802926 0.297176 12.5104Z" sodipodi:nodetypes="ccccc"/><path id="shape0" transform="matrix(0.999999995348313 0 0 0.999999995348313 61.1979739456513 56.7237700847958)" fill="#780300" fill-rule="evenodd" stroke-opacity="0" stroke="#000000" stroke-width="0" stroke-linecap="square" stroke-linejoin="bevel" d="M15.9235 0L20.8249 2.94351C17.7627 18.1849 14.1789 22.0745 10.5337 24.6269C2.32288 30.5763 -1.35697 24.3386 0.451177 19.3437C0.646523 19.1365 5.80395 12.6886 15.9235 0Z" sodipodi:nodetypes="ccccc"/><path id="shape6" transform="translate(80.1981247981359, 34.8839457154439)" fill="#780300" fill-rule="evenodd" d="M3.42299 22.0751L0 18.439L16.5778 0.809069C20.7001 -0.897839 23.3496 -0.183956 22.8688 5.67496C21.1408 14.9395 14.6589 20.4062 3.42299 22.0751Z" sodipodi:nodetypes="ccccc"/><path id="shape7" transform="translate(63.8810306307662, 33.3206916413235)" fill="#780300" fill-rule="evenodd" d="M11.9662 19.6471C6.63213 14.9058 0.77144 9.94425 0.684987 7.39804C-1.44697 2.46295 1.48136 -2.83816 8.30348 1.76409L14.6833 17.3296C14.7099 17.3533 13.8042 18.1258 11.9662 19.6471Z" sodipodi:nodetypes="ccccc"/><path id="shape8" transform="translate(53.9167054109177, 43.3948876783639)" fill="#780300" fill-rule="evenodd" d="M22.8008 9.63317L10.9735 0.904759C-0.220806 -2.80582 -1.83308 5.91738 1.61468 8.68307C17.9022 15.4688 20.255 14.6519 21.7664 13.3758C21.7131 13.2841 22.0579 12.0365 22.8008 9.63317Z" sodipodi:nodetypes="ccccc"/><path id="shape9" transform="translate(120.551771233522, 59.8049070108991)" fill="#a900a9" fill-rule="evenodd" d="M4.40719 8.8394L6.80905 7.73392C5.40596 2.60366 3.01249 0.777832 0.304926 0C-0.671193 4.13343 0.696227 7.0799 4.40719 8.8394Z" sodipodi:nodetypes="cccc"/><path id="shape10" transform="translate(126.745076769233, 58.5617971183518)" fill="#a900a9" fill-rule="evenodd" d="M0.615749 8.97703L2.99653 8.64826C5.00677 3.30465 4.0892 1.94647 2.99986 0C0.0938838 1.833 -0.700819 4.82535 0.615749 8.97703Z" sodipodi:nodetypes="cccc"/><path id="shape11" transform="translate(129.741609031344, 65.3336090587297)" fill="#a900a9" fill-rule="evenodd" d="M0 1.87645L1.50175 5.05848C4.50591 4.79687 7.50399 2.69446 9.99062 0.908391C5.45802 -0.567592 2.12782 -0.244906 0 1.87645Z" sodipodi:nodetypes="cccc"/><path id="shape12" transform="translate(125.934819972421, 70.86)" fill="#a900a9" fill-rule="evenodd" d="M0.591347 0L3.83675 0C5.02893 3.48937 3.81338 6.49719 2.77567 9.54057C0.0711132 5.99236 -0.656994 2.81217 0.591347 0Z" sodipodi:nodetypes="cccc"/><path id="shape13" transform="translate(129.562906566823, 70.392086399526)" fill="#a900a9" fill-rule="evenodd" d="M0 0.467914L1.68045 0C5.14395 1.59311 5.87632 3.62439 7.40982 6.10601C2.97463 5.88159 0.504692 4.00222 0 0.467914Z" sodipodi:nodetypes="cccc"/><path id="shape14" transform="translate(79.4500337620186, 24.0097666337337)" fill="#c10003" fill-rule="evenodd" d="M0.0587095 29.5481L14.8423 18.3977C21.3133 9.85548 17.2834 -2.53137 10.6103 0.454353L8.44932 1.3301C2.3469 14.9833 -0.449971 24.3893 0.0587095 29.5481Z" sodipodi:nodetypes="ccccc"/><path id="shape15" transform="translate(47.3307238361114, 56.0077882734543)" fill="#c10003" fill-rule="evenodd" d="M31.259 3.71723L16.5109 19.5872C5.7976 28.3585 -1.85186 20.3189 0.392416 13.7907L28.5962 0.0012227C28.653 -0.0445371 29.5406 1.19413 31.259 3.71723Z" sodipodi:nodetypes="ccccc"/><path id="shape16" transform="translate(76.3955799509322, 18.2935296564295)" fill="#780300" fill-rule="evenodd" d="M3.42488 29.3391C7.2832 24.0916 12.1943 14.5719 12.4167 12.1579C13.9183 -3.68431 0.681439 -3.56221 0 9.71997C0.0110455 9.70419 1.15267 16.2439 3.42488 29.3391Z" sodipodi:nodetypes="cccc"/><path id="shape17" transform="translate(41.2055668005472, 59.5486869240183)" fill="#780300" fill-rule="evenodd" d="M29.5735 0C20.9432 8.19332 14.7759 9.66056 8.54138 11.3113C-0.594041 13.1852 -2.88815 2.764 4.03956 1.4154C4.49085 1.03354 13.0022 0.561741 29.5735 0Z" sodipodi:nodetypes="cccc"/><path id="shape18" transform="translate(66.9762194499245, 20.3309185312342)" fill="#c10003" fill-rule="evenodd" d="M10.868 28.3301C7.05641 23.1336 0.376535 19.1525 0.153126 7.97489C-1.45502 0.933649 10.0839 -5.33253 12.2881 7.09204L12.5745 30.6638C12.6424 30.626 12.0735 29.8481 10.868 28.3301Z" sodipodi:nodetypes="ccccc"/><path id="shape19" transform="translate(42.2630085771096, 50.9513811671099)" fill="#c10003" fill-rule="evenodd" d="M31.3019 6.44581C22.4387 3.08203 14.6193 0.237118 6.78097 0.000780805C-2.93714 -0.117024 -1.93935 13.137 8.04252 11.7121L31.9244 8.52157C31.9212 8.49158 31.7137 7.79967 31.3019 6.44581Z" sodipodi:nodetypes="ccccc"/><path id="shape20" transform="translate(64.3758820877781, 40.5491213389121)" fill="#000000" fill-rule="evenodd" d="M0 17.7303C13.2707 15.6439 15.1277 12.9935 11.8415 0C19.0073 5.85127 22.2025 13.0418 18.9076 18.0593C15.6126 23.0768 6.13837 22.7679 0 17.7303Z" sodipodi:nodetypes="ccsc"/><circle id="shape21" transform="translate(122.828451882845, 65.163179916318)" r="2.58" cx="2.58" cy="2.58" fill="#ffd601" fill-rule="evenodd"/><circle id="shape01" transform="matrix(0.999999968932077 0 0 0.999999968932077 125.079898916967 69.5535377089099)" r="2.58" cx="2.58" cy="2.58" fill="#ffe800" fill-rule="evenodd" stroke-opacity="0" stroke="#000000" stroke-width="0" stroke-linecap="square" stroke-linejoin="bevel"/><circle id="shape02" transform="matrix(0.999999968932077 0 0 0.999999968932077 126.981672959513 66.1230941782345)" r="2.58" cx="2.58" cy="2.58" fill="#ffe201" fill-rule="evenodd" stroke-opacity="0" stroke="#000000" stroke-width="0" stroke-linecap="square" stroke-linejoin="bevel"/><path id="shape22" transform="matrix(0.999377138968622 0.0352892916746646 -0.0352892916746646 0.999377138968622 68.212814095883 46.6965015840351)" fill="#d05d0b" fill-rule="evenodd" d="M15.2837 11.7724C6.57239 10.5543 4.04868 9.71065 0 0C10.2844 1.92115 11.6033 4.18041 15.2837 11.7724Z" sodipodi:nodetypes="ccc"/>
</svg>
